<svg xmlns="http://www.w3.org/2000/svg" viewBox="0 0 540.48 388.44"><defs><style>.cls-1{fill:#2c2d2c;}</style></defs><g id="Layer_2" data-name="Layer 2"><g id="Layer_1-2" data-name="Layer 1"><path class="cls-1" d="M130.21,127.28H107.1l-1.28-15c-9,11-22,17.6-39.43,17.6C27.33,129.84,0,102,0,66.21,0,27.33,28.61,0,66.76,0c30.44,0,56.85,17.24,62.17,47H96.47C91,32.46,78.49,28.43,67.31,28.43c-21.28,0-35.95,15-35.95,37,0,19.63,14.12,35.58,36.31,35.58,14.49,0,25.5-7.15,31.55-19.07l-35.76-.37V57.22h66.75Z"/><path class="cls-1" d="M210.73,65.11c-14.49.55-23.66,4.4-30.63,11.37v50.8H150.39V38.33H180.1v9.54c7.88-6.79,17.42-11,30.63-11Z"/><path class="cls-1" d="M317.1,127.28H287.39v-5a44.43,44.43,0,0,1-24.4,6.79c-24,0-44.19-20-44.19-46.4,0-26.59,20.17-46.4,44.19-46.4a44.43,44.43,0,0,1,24.4,6.79V38.33H317.1ZM287.39,96.47V69a23.06,23.06,0,0,0-18.53-8.44c-12.1,0-20.9,9.9-20.9,22.19s8.8,22,20.9,22C275.46,104.72,281.88,102.88,287.39,96.47Z"/><path class="cls-1" d="M435.57,82.71c0,26.41-20.17,46.4-44.2,46.4A44.37,44.37,0,0,1,367,122.32v46.22H337.27V38.33H367V43.1a44.37,44.37,0,0,1,24.39-6.79C415.4,36.31,435.57,56.12,435.57,82.71Zm-29.16,0c0-12.29-8.8-22.19-20.91-22.19A23,23,0,0,0,367,69V96.47c5.5,6.41,11.92,8.25,18.52,8.25C397.61,104.72,406.41,95,406.41,82.71Z"/><path class="cls-1" d="M539.93,91l.18.55H476.65c2.39,8.07,8.62,14.31,20,14.31,6.23,0,11-2.39,13.57-6.42h29.34c-4.22,18.34-21.27,29.89-43.28,29.89-29.16,0-48.6-19.44-48.6-46.58,0-27,18.89-46.4,47.31-46.4,25.86,0,45.49,17.79,45.49,44.57A62,62,0,0,1,539.93,91ZM476.29,74.09H512.6C511,64.37,504.53,59.24,495,59.24,484.91,59.24,478.49,65.11,476.29,74.09Z"/><path class="cls-1" d="M130.21,347.36H107.1l-1.28-15c-9,11-22,17.61-39.43,17.61C27.33,349.93,0,322.05,0,286.29c0-38.88,28.61-66.21,66.76-66.21,30.44,0,56.85,17.24,62.17,46.95H96.47c-5.51-14.49-18-18.52-29.16-18.52-21.28,0-35.95,15-35.95,37,0,19.63,14.12,35.58,36.31,35.58,14.49,0,25.5-7.15,31.55-19.07l-35.76-.37V277.3h66.75Z"/><path class="cls-1" d="M195.69,388.44H164.51l16.87-40-42.18-90h31.55l25.49,54.84,23.11-54.84h31.17Z"/><path class="cls-1" d="M350.66,347.36H321v-4.95a44.37,44.37,0,0,1-24.39,6.78c-24,0-44.2-20-44.2-46.4,0-26.59,20.17-46.4,44.2-46.4A44.37,44.37,0,0,1,321,263.18v-4.77h29.71ZM321,316.55V289a23,23,0,0,0-18.52-8.44c-12.11,0-20.91,9.91-20.91,22.19s8.8,22,20.91,22C309,324.8,315.45,323,321,316.55Z"/><path class="cls-1" d="M463.08,296.56v50.8H433.19v-46c0-12.66-6.42-18.71-16.14-18.71-5.5,0-11.37,3.12-16.5,9v55.75H370.84V258.41h29.71v6a38,38,0,0,1,24.57-8.8C447.68,255.66,463.08,271.25,463.08,296.56Z"/></g></g></svg>