<svg xmlns="http://www.w3.org/2000/svg" width="24" height="24" viewBox="0 0 24 24">
    <defs>
        <linearGradient id="a" x1="82.276%" x2="15.684%" y1="11.183%" y2="86.584%">
            <stop offset="0%" stop-color="#9D2BAD"/>
            <stop offset="28.975%" stop-color="#AD2B8D"/>
            <stop offset="56.195%" stop-color="#C53166"/>
            <stop offset="75.709%" stop-color="#E46F52"/>
            <stop offset="100%" stop-color="#F3B562"/>
        </linearGradient>
    </defs>
    <g fill="none" fill-rule="evenodd">
        <path fill="url(#a)" fill-rule="nonzero" d="M0 12C0 5.373 5.373 0 12 0s12 5.373 12 12-5.373 12-12 12S0 18.627 0 12z"/>
        <path fill="#FFF" d="M12 5c-1.9 0-2.139.008-2.886.042-.745.034-1.254.152-1.699.325-.46.18-.85.418-1.24.808-.39.389-.628.78-.808 1.24-.173.445-.291.954-.325 1.699C5.01 9.86 5 10.099 5 12c0 1.901.008 2.139.042 2.886.035.745.153 1.253.326 1.699.178.46.418.85.807 1.24.389.389.78.629 1.24.808.445.173.954.29 1.699.325.746.034.985.042 2.886.042 1.901 0 2.139-.008 2.886-.042.745-.034 1.254-.152 1.7-.325.46-.18.85-.419 1.239-.808.389-.39.628-.78.807-1.24.173-.446.29-.954.326-1.7.033-.746.042-.984.042-2.885 0-1.901-.009-2.14-.042-2.886-.035-.746-.153-1.254-.326-1.7-.179-.46-.418-.85-.807-1.24a3.421 3.421 0 0 0-1.24-.807c-.446-.173-.955-.29-1.7-.325C14.138 5.008 13.9 5 11.998 5h.003zm-.627 1.261H12c1.869 0 2.09.007 2.828.04.683.032 1.053.146 1.3.242.327.127.56.278.804.523.245.245.397.479.524.805.096.247.21.617.241 1.3.034.738.041.96.041 2.827 0 1.869-.007 2.09-.04 2.828-.032.683-.146 1.053-.242 1.3-.127.326-.279.559-.524.804a2.165 2.165 0 0 1-.804.523c-.247.096-.617.21-1.3.241-.738.034-.96.041-2.828.041-1.87 0-2.091-.007-2.829-.04-.682-.032-1.053-.146-1.3-.242a2.168 2.168 0 0 1-.805-.524 2.17 2.17 0 0 1-.524-.804c-.095-.247-.21-.617-.24-1.3-.034-.737-.04-.96-.04-2.828 0-1.87.006-2.09.04-2.828.03-.683.145-1.053.24-1.3.127-.326.28-.56.524-.805.245-.245.479-.396.805-.524.247-.096.618-.21 1.3-.24.646-.03.896-.039 2.2-.04v.001zm4.364 1.163a.84.84 0 1 0 0 1.68.84.84 0 0 0 0-1.68zm-3.736.981a3.595 3.595 0 1 0 0 7.19 3.595 3.595 0 0 0 0-7.19zm0 1.262a2.333 2.333 0 1 1 0 4.666 2.333 2.333 0 0 1 0-4.666z"/>
    </g>
</svg>
