<svg xmlns="http://www.w3.org/2000/svg" viewBox="0 0 1624.29 855.99"><defs><style>.cls-1{fill:#fff;}.cls-2,.cls-3,.cls-4{fill:none;stroke:#fff;stroke-miterlimit:10;}.cls-2{stroke-width:5.4px;}.cls-3{stroke-width:1.69px;}.cls-4{stroke-width:5.58px;}</style></defs><g id="Layer_2" data-name="Layer 2"><g id="Layer_1-2" data-name="Layer 1"><rect class="cls-1" x="94.52" y="530.66" width="1179.13" height="16.98"/><rect class="cls-1" x="83.2" y="762.96" width="267.58" height="16.98"/><rect class="cls-1" x="484.76" y="627.57" width="788.89" height="16.98"/><rect class="cls-1" x="213.5" y="106.15" width="1410.79" height="16.98"/><rect class="cls-1" x="872.84" y="423.11" width="228.42" height="16.98" transform="translate(1418.65 -555.45) rotate(90)"/><rect class="cls-1" x="1154.49" y="733.29" width="228.42" height="16.98" transform="translate(2010.48 -526.93) rotate(90)"/><rect class="cls-1" x="906.35" y="716.76" width="178.39" height="16.98" transform="translate(1720.79 -270.29) rotate(90)"/><rect class="cls-1" x="924.5" y="212.39" width="235.1" height="16.98" transform="translate(1732.88 -589.92) rotate(118.46)"/><polygon class="cls-1" points="638.21 274.67 526.15 109.09 511.23 117.18 623.28 282.76 638.21 274.67"/><polygon class="cls-1" points="484.42 627.57 340.8 766.64 351.36 779.94 494.98 640.87 484.42 627.57"/><rect class="cls-1" x="1209.97" y="381.55" width="455.55" height="16.98" transform="translate(2771.71 -273.1) rotate(138.39)"/><rect class="cls-1" x="494.42" y="402.02" width="270.6" height="16.98" transform="translate(1040.22 -219.2) rotate(90)"/><polyline class="cls-2" points="889.88 545.81 889.88 451.42 978.56 451.42"/><polyline class="cls-2" points="889.88 490.1 813.47 490.1 813.47 545.81"/><polyline class="cls-2" points="1312.3 490.1 1208.13 385.93 1208.13 114.64"/><polyline class="cls-2" points="394.62 530.66 394.62 441.99 585.98 227.64"/><rect class="cls-1" x="128.46" width="4.15" height="844.26"/><circle class="cls-3" cx="98.46" cy="404.75" r="16.06"/><rect class="cls-1" x="83.66" y="398.5" width="30.22" height="1.76"/><rect class="cls-1" x="83.66" y="409" width="30.22" height="1.76"/><rect class="cls-1" x="83.35" y="403.87" width="30.22" height="1.76" transform="translate(-139.27 62.69) rotate(-21.13)"/><path class="cls-1" d="M29.66,437.57c0,3.07-1.8,4.87-4.59,4.87a4.31,4.31,0,0,1-4.54-3.92h1.35a3,3,0,0,0,3.26,2.68c1.88,0,3.17-1.36,3.17-3.65v-8.13h1.35Z"/><path class="cls-1" d="M41,442.16H39.74v-1a4.42,4.42,0,0,1-3.13,1.2,4.56,4.56,0,0,1,0-9.12,4.42,4.42,0,0,1,3.13,1.2v-1H41Zm-1.27-2.46V436a3.51,3.51,0,0,0-3-1.58,3.44,3.44,0,0,0,0,6.88A3.51,3.51,0,0,0,39.74,439.7Z"/><path class="cls-1" d="M52.34,437.18v5H51.07v-4.93a2.54,2.54,0,0,0-2.64-2.83,3.75,3.75,0,0,0-3,1.61v6.15H44.17V433.5h1.28v1a4.43,4.43,0,0,1,3.2-1.31C50.83,433.22,52.34,434.74,52.34,437.18Z"/><path class="cls-1" d="M63.51,442.16H62.24v-1a4.42,4.42,0,0,1-3.13,1.2,4.56,4.56,0,0,1,0-9.12,4.42,4.42,0,0,1,3.13,1.2v-1h1.27Zm-1.27-2.46V436a3.53,3.53,0,0,0-3-1.58,3.44,3.44,0,0,0,0,6.88A3.53,3.53,0,0,0,62.24,439.7Z"/><path class="cls-1" d="M68.06,439.78v2.38H66.79v-13.3h1.27v9.23l4.87-4.59h1.65l-3.77,3.64,4.48,5H73.63L69.9,438Z"/><path class="cls-1" d="M86.12,437.83a4.5,4.5,0,0,1-4.48,4.57,4.42,4.42,0,0,1-3.13-1.21v5.62H77.24V433.5h1.27v1a4.38,4.38,0,0,1,3.13-1.22A4.49,4.49,0,0,1,86.12,437.83Zm-1.27,0a3.4,3.4,0,0,0-3.36-3.43,3.48,3.48,0,0,0-3,1.61v3.66a3.48,3.48,0,0,0,3,1.61A3.41,3.41,0,0,0,84.85,437.83Z"/><path class="cls-1" d="M96.57,442.16H95.3v-1a4.47,4.47,0,0,1-3.19,1.29,3.59,3.59,0,0,1-3.69-3.93v-5H89.7v4.93a2.55,2.55,0,0,0,2.64,2.85,3.75,3.75,0,0,0,3-1.61V433.5h1.27Z"/><path class="cls-1" d="M101,435a4.15,4.15,0,0,1,3.39-1.72v1.22a4,4,0,0,0-3.39,2v5.66H99.74V433.5H101Z"/><path class="cls-1" d="M106.5,430.22a.89.89,0,1,1,.88.87A.85.85,0,0,1,106.5,430.22ZM108,442.16h-1.28V433.5H108Z"/><path class="cls-1" d="M10,457.77H8.73c-.3-1.55-1.42-2.57-3.56-2.57-1.93,0-3.2.94-3.2,2.42,0,1.16.92,1.88,2.6,2.18l1.93.37c2.27.43,3.54,1.5,3.54,3.32,0,2.32-1.89,3.86-4.74,3.86-3,0-5-1.6-5.3-4.35H1.31c.32,2,1.71,3.15,4.05,3.15,2,0,3.33-1,3.33-2.51,0-1.07-.74-1.88-2.39-2.18L4.08,461C1.74,460.6.56,459.42.56,457.7c0-2.2,1.82-3.66,4.52-3.66S9.73,455.26,10,457.77Z"/><path class="cls-1" d="M21.3,462.74a4.6,4.6,0,1,1-4.59-4.56A4.53,4.53,0,0,1,21.3,462.74Zm-1.27,0a3.32,3.32,0,1,0-3.32,3.45A3.32,3.32,0,0,0,20,462.74Z"/><path class="cls-1" d="M31.74,467.07H30.46v-1a4.41,4.41,0,0,1-3.18,1.3,3.6,3.6,0,0,1-3.7-3.94v-5h1.28v4.93a2.56,2.56,0,0,0,2.64,2.85,3.75,3.75,0,0,0,3-1.62v-6.16h1.28Z"/><path class="cls-1" d="M40.56,467.05a6.47,6.47,0,0,1-1.87.3c-2,0-3-1.15-3-3.39v-4.45H33.38v-1.1h2.31V455.2H37v3.21h3.28v1.1H37V464c0,1.57.62,2.21,1.93,2.21a5.83,5.83,0,0,0,1.46-.23Z"/><path class="cls-1" d="M51,462.08v5H49.74v-4.93a2.54,2.54,0,0,0-2.64-2.83,3.75,3.75,0,0,0-3,1.61v6.15H42.84V453.76h1.28v5.68a4.39,4.39,0,0,1,3.2-1.31A3.6,3.6,0,0,1,51,462.08Z"/><path class="cls-1" d="M71.4,467.07H70.07v-9.82l-4.38,7.31h-.9l-4.42-7.37,0,9.88H59.08V454.32h1l5.13,8.62,5.13-8.62h1Z"/><path class="cls-1" d="M83,463.24l-.08,0v0H75.61a3.17,3.17,0,0,0,3.24,3,2.61,2.61,0,0,0,2.51-1.33h1.39a4,4,0,0,1-3.94,2.44,4.57,4.57,0,0,1,0-9.13A4.24,4.24,0,0,1,83,462.7,4.7,4.7,0,0,1,83,463.24Zm-7.4-1h6.13a3,3,0,0,0-3-3A3.15,3.15,0,0,0,75.61,462.25Z"/><path class="cls-1" d="M91.33,467.05a6.54,6.54,0,0,1-1.88.3c-2,0-3-1.15-3-3.39v-4.45H84.15v-1.1h2.31V455.2h1.27v3.21H91v1.1H87.73V464c0,1.57.62,2.21,1.93,2.21a5.83,5.83,0,0,0,1.46-.23Z"/><path class="cls-1" d="M94.88,459.91a4.13,4.13,0,0,1,3.4-1.73v1.22a4,4,0,0,0-3.4,2v5.66H93.61v-8.66h1.27Z"/><path class="cls-1" d="M108.75,462.74a4.6,4.6,0,1,1-4.59-4.56A4.53,4.53,0,0,1,108.75,462.74Zm-1.27,0a3.32,3.32,0,1,0-3.32,3.45A3.32,3.32,0,0,0,107.48,462.74Z"/><path class="cls-1" d="M54.8,482.68H53.49c-.3-1.56-1.43-2.57-3.56-2.57-1.93,0-3.21.94-3.21,2.42,0,1.16.92,1.87,2.61,2.17l1.93.38c2.26.43,3.54,1.5,3.54,3.31,0,2.33-1.89,3.86-4.74,3.86-3.06,0-5-1.59-5.31-4.34h1.32c.31,2,1.7,3.14,4,3.14,2,0,3.34-1,3.34-2.51,0-1.06-.75-1.87-2.4-2.17l-2.21-.43c-2.34-.43-3.52-1.61-3.52-3.34,0-2.19,1.81-3.65,4.51-3.65S54.48,480.17,54.8,482.68Z"/><path class="cls-1" d="M63.08,492a6.21,6.21,0,0,1-1.88.3c-2,0-3-1.14-3-3.39v-4.44H55.9v-1.11h2.31v-3.2h1.27v3.2h3.28v1.11H59.48v4.44c0,1.58.62,2.21,1.93,2.21a5.81,5.81,0,0,0,1.46-.22Z"/><path class="cls-1" d="M73.19,492H71.92v-1a4.42,4.42,0,0,1-3.13,1.2,4.57,4.57,0,0,1,0-9.13,4.42,4.42,0,0,1,3.13,1.2v-1h1.27Zm-1.27-2.45v-3.73a3.51,3.51,0,0,0-3-1.58,3.44,3.44,0,0,0,0,6.88A3.5,3.5,0,0,0,71.92,489.52Z"/><path class="cls-1" d="M82,492a6.21,6.21,0,0,1-1.88.3c-2,0-3-1.14-3-3.39v-4.44h-2.3v-1.11h2.3v-3.2h1.28v3.2H81.7v1.11H78.42v4.44c0,1.58.62,2.21,1.93,2.21a5.81,5.81,0,0,0,1.46-.22Z"/><path class="cls-1" d="M84.45,480a.89.89,0,0,1,1.78,0,.89.89,0,0,1-1.78,0ZM86,492H84.69v-8.66H86Z"/><path class="cls-1" d="M98,487.64a4.6,4.6,0,1,1-4.59-4.55A4.53,4.53,0,0,1,98,487.64Zm-1.28,0a3.32,3.32,0,1,0-3.31,3.45A3.31,3.31,0,0,0,96.72,487.64Z"/><path class="cls-1" d="M108.67,487v5H107.4V487a2.55,2.55,0,0,0-2.64-2.83,3.76,3.76,0,0,0-3,1.62V492H100.5v-8.66h1.28v1A4.39,4.39,0,0,1,105,483C107.16,483,108.67,484.55,108.67,487Z"/><path class="cls-1" d="M725.85,569.34c5.73,0,9.56,3.31,9.56,8.27,0,5.12-3.94,8.5-9.9,8.5h-5.77v8.24h-2.61v-25Zm-.12,14.38c4.27,0,7.11-2.46,7.11-6.11s-2.84-5.88-7.11-5.88h-6v12Z"/><path class="cls-1" d="M755.1,594.35h-2.51v-1.87a8.63,8.63,0,0,1-6.14,2.35,9,9,0,0,1,0-17.92,8.64,8.64,0,0,1,6.14,2.36v-1.91h2.51Zm-2.51-4.82v-7.32a6.87,6.87,0,0,0-5.81-3.09,6.75,6.75,0,0,0,0,13.5A6.87,6.87,0,0,0,752.59,589.53Z"/><path class="cls-1" d="M777.36,584.57v9.78h-2.5v-9.67c0-3.54-2.1-5.56-5.19-5.56a7.35,7.35,0,0,0-5.85,3.17v12.06h-2.5v-17h2.5v2a8.68,8.68,0,0,1,6.29-2.58C774.38,576.8,777.36,579.78,777.36,584.57Z"/><path class="cls-1" d="M785.53,589.68v4.67H783V568.23h2.5v18.14l9.56-9h3.24l-7.39,7.13,8.79,9.86h-3.28l-7.32-8.13Z"/><path class="cls-1" d="M819.6,584.57v9.78h-2.5v-9.67c0-3.54-2.1-5.56-5.19-5.56a7.35,7.35,0,0,0-5.85,3.17v12.06h-2.5V568.23h2.5v11.15a8.68,8.68,0,0,1,6.29-2.58C816.62,576.8,819.6,579.78,819.6,584.57Z"/><path class="cls-1" d="M841.53,594.35H839v-1.87a8.68,8.68,0,0,1-6.15,2.35,9,9,0,0,1,0-17.92,8.68,8.68,0,0,1,6.15,2.36v-1.91h2.5Zm-2.5-4.82v-7.32a6.9,6.9,0,0,0-5.82-3.09,6.75,6.75,0,0,0,0,13.5A6.9,6.9,0,0,0,839,589.53Z"/><path class="cls-1" d="M860.77,585.27v9.08h-2.61v-25h9.31c5.63,0,9.53,3,9.53,8,0,4.08-2.72,6.91-6.92,7.72l8,9.31h-3.27L867,585.27Zm6.63-2.4c4.08,0,7-2.09,7-5.55s-2.91-5.59-7-5.59h-6.63v11.14Z"/><path class="cls-1" d="M898.23,585.85a9,9,0,1,1-9-8.94A8.9,8.9,0,0,1,898.23,585.85Zm-2.5,0a6.52,6.52,0,1,0-6.51,6.77A6.5,6.5,0,0,0,895.73,585.85Z"/><path class="cls-1" d="M919.68,594.35h-2.5v-1.87a8.63,8.63,0,0,1-6.14,2.35,9,9,0,0,1,0-17.92,8.64,8.64,0,0,1,6.14,2.36v-1.91h2.5Zm-2.5-4.82v-7.32a6.87,6.87,0,0,0-5.81-3.09,6.75,6.75,0,0,0,0,13.5A6.87,6.87,0,0,0,917.18,589.53Z"/><path class="cls-1" d="M942.31,594.35h-2.5v-1.87a8.64,8.64,0,0,1-6.14,2.31,8.94,8.94,0,0,1,0-17.88,8.65,8.65,0,0,1,6.14,2.32v-11h2.5Zm-2.5-4.85v-7.29a6.84,6.84,0,0,0-5.81-3.13,6.76,6.76,0,0,0,0,13.51A6.9,6.9,0,0,0,939.81,589.5Z"/><path class="cls-1" d="M480.22,442.55l-1.47,1.67c-2.32-1.37-4.88-1.07-7.28,1.65-2.17,2.47-2.41,5.14-.52,6.81,1.48,1.31,3.42.93,5.7-.88l2.65-2c3.1-2.41,5.89-2.83,8.21-.78,3,2.61,2.79,6.75-.41,10.38-3.43,3.9-7.66,4.59-11.51,1.87l1.48-1.67c2.89,1.83,5.93,1.37,8.56-1.62,2.3-2.6,2.49-5.37.55-7.07-1.36-1.21-3.23-1.16-5.47.61l-3,2.33c-3.19,2.5-6,2.68-8.22.74-2.79-2.46-2.61-6.42.42-9.86S476.66,440.13,480.22,442.55Z"/><path class="cls-1" d="M497.83,433.66l6.36,5.6-1.44,1.63-6.28-5.54c-2.29-2-4.81-1.82-6.58.18a6.39,6.39,0,0,0-1.29,5.61l7.83,6.92L495,449.68l-17-15,1.44-1.62,7.24,6.38a7.51,7.51,0,0,1,1.93-5.56C491.08,431.15,494.73,430.92,497.83,433.66Z"/><path class="cls-1" d="M492.13,422.26a1.51,1.51,0,1,1,2.08-.16A1.43,1.43,0,0,1,492.13,422.26Zm16.92,11.49-1.43,1.62-11-9.73L498,424Z"/><path class="cls-1" d="M517.4,424.29l-1.33,1.5-15.68-4.48,1.54-1.74,12.71,3.65-5.21-12.16,1.56-1.77Z"/><path class="cls-1" d="M518.53,390.25c3.29-3.73,7.63-4.32,10.86-1.48s3.26,7.43-.15,11.3l-3.31,3.75,5.35,4.72-1.49,1.7-16.25-14.33Zm9.28,8.31c2.44-2.77,2.47-6,.1-8.11s-5.45-1.54-7.89,1.24l-3.43,3.89,7.79,6.87Z"/><path class="cls-1" d="M551.59,385.51l-1.43,1.63L548.87,386a7.55,7.55,0,0,1-1.93,5.51c-2.45,2.78-6.07,3-9.17.29l-6.38-5.63,1.43-1.63,6.28,5.55c2.32,2,4.84,1.84,6.61-.17a6.38,6.38,0,0,0,1.27-5.59l-7.86-6.93,1.43-1.63Z"/><path class="cls-1" d="M547.46,371.8a7,7,0,0,1,1.61-6.26l1.56,1.36a6.78,6.78,0,0,0-1.26,6.58l7.21,6.37-1.43,1.62-11-9.73,1.43-1.63Z"/><path class="cls-1" d="M547.54,359.43a1.51,1.51,0,1,1,2.09-.16A1.45,1.45,0,0,1,547.54,359.43Zm16.92,11.48L563,372.54l-11-9.74,1.43-1.62Z"/><path class="cls-1" d="M1123.09,448c-5.33,0-9.35-3.6-10.07-9.1-1-7.7-1.49-8.25-9.16-10.34a9.58,9.58,0,0,1-7.31-10.08,9.87,9.87,0,0,1,19-3.47,13.19,13.19,0,0,1,.75,4.39c.16,4.44,3.49,8.22,7.59,8.43,3.5.17,6.66-3.07,7.16-7.49.53-4.69,2.73-8.09,7.32-9.58a10.13,10.13,0,0,1,11,3.3,9.75,9.75,0,0,1,1.22,10.17,10.13,10.13,0,0,1-8.57,6.23c-5.88.77-7.73,2.53-8.92,8.66-1.06,5.47-4.83,8.84-9.94,8.88"/><path class="cls-1" d="M1088.72,448c-5.66-.1-9.64-3.77-10.13-9.35-.47-5.3-3.13-8.08-8.45-8.81-5.82-.79-9.62-5.37-9.2-11.06a9.49,9.49,0,0,1,9.66-9c5.8,0,9.86,3.94,10.25,10a8.6,8.6,0,0,0,7.53,8.18,22.22,22.22,0,0,1,4,.88c4.95,1.82,7.77,6.45,6.89,11.1-.93,5-5.11,8.17-10.59,8.07"/><path class="cls-1" d="M1106.1,465.47a9.33,9.33,0,0,1-9.5-9.79,9.71,9.71,0,0,1,9.8-9.63A10,10,0,0,1,1116,456a9.7,9.7,0,0,1-9.94,9.49"/><path class="cls-4" d="M1109.25,395.88s-1.73-19,20-20C1129.24,375.89,1132.7,395.45,1109.25,395.88Z"/><path class="cls-1" d="M1067.36,491.29h-1.09l-8-9.88v9.88h-1.27V479.12h1.06l8,10v-10h1.27Z"/><path class="cls-1" d="M1070.62,479.89a.85.85,0,1,1,.84.83A.82.82,0,0,1,1070.62,479.89Zm1.45,11.4h-1.22V483h1.22Z"/><path class="cls-1" d="M1083.15,486.53v4.76h-1.22v-4.7a2.43,2.43,0,0,0-2.52-2.71,3.6,3.6,0,0,0-2.85,1.54v5.87h-1.21V483h1.21v1a4.22,4.22,0,0,1,3.06-1.25A3.44,3.44,0,0,1,1083.15,486.53Z"/><path class="cls-1" d="M1093.64,487.64l-.07,0v0h-7a3,3,0,0,0,3.1,2.83,2.52,2.52,0,0,0,2.4-1.27h1.32a3.76,3.76,0,0,1-3.76,2.33,4.36,4.36,0,0,1,0-8.72,4,4,0,0,1,4,4.31A4.35,4.35,0,0,1,1093.64,487.64Zm-7.07-.95h5.85a2.8,2.8,0,0,0-2.82-2.82A3,3,0,0,0,1086.57,486.69Z"/><path class="cls-1" d="M1107.66,485.21v6.08h-1l-.11-2.59a5,5,0,0,1-4.72,2.85,6.22,6.22,0,0,1-6.28-6.27,6.31,6.31,0,0,1,6.37-6.41,5.74,5.74,0,0,1,5.76,4.26h-1.36a4.44,4.44,0,0,0-4.38-3,5,5,0,0,0-5.11,5.19,4.94,4.94,0,0,0,5,5,4.5,4.5,0,0,0,4.54-4.22h-4.65v-1.17h6l0,.29Z"/><path class="cls-1" d="M1111.94,484.46a3.94,3.94,0,0,1,3.24-1.65V484a3.83,3.83,0,0,0-3.24,1.92v5.4h-1.22V483h1.22Z"/><path class="cls-1" d="M1124.88,491.29h-1.22v-.91a4.19,4.19,0,0,1-3,1.15,4.36,4.36,0,0,1,0-8.72,4.19,4.19,0,0,1,3,1.15V483h1.22Zm-1.22-2.34v-3.56a3.35,3.35,0,0,0-2.82-1.51,3.29,3.29,0,0,0,0,6.57A3.34,3.34,0,0,0,1123.66,489Z"/><path class="cls-1" d="M1136.39,487.16a4.3,4.3,0,0,1-4.27,4.37,4.15,4.15,0,0,1-3-1.17v5.37h-1.22V483h1.22v1a4.18,4.18,0,0,1,3-1.16A4.29,4.29,0,0,1,1136.39,487.16Zm-1.21,0a3.25,3.25,0,0,0-3.21-3.28,3.32,3.32,0,0,0-2.84,1.54v3.49a3.29,3.29,0,0,0,2.84,1.54A3.24,3.24,0,0,0,1135.18,487.16Z"/><path class="cls-1" d="M1146.67,487.64l-.07,0v0h-7a3,3,0,0,0,3.1,2.83,2.49,2.49,0,0,0,2.39-1.27h1.33a3.77,3.77,0,0,1-3.76,2.33,4.36,4.36,0,0,1,0-8.72,4,4,0,0,1,4,4.31A4.35,4.35,0,0,1,1146.67,487.64Zm-7.07-.95h5.85a2.81,2.81,0,0,0-2.83-2.82A3,3,0,0,0,1139.6,486.69Z"/><path class="cls-1" d="M1149.66,488.73c.25,1.13,1.13,1.81,2.74,1.81,1.34,0,2.25-.57,2.25-1.47,0-.73-.59-1.18-1.43-1.3l-1.88-.32c-1.38-.22-2.45-.83-2.45-2.22s1.33-2.46,3.31-2.46c1.68,0,3.44.74,3.58,2.64h-1.13c-.16-1.08-1.05-1.65-2.45-1.65s-2.11.57-2.11,1.38c0,.62.45,1.11,1.63,1.29l1.65.28c1.19.2,2.47.72,2.47,2.29s-1.45,2.56-3.48,2.56-3.58-.95-3.85-2.83Z"/><path class="cls-1" d="M1025.65,515.1h-1.27V502.93h1.27Z"/><path class="cls-1" d="M1036.66,510.34v4.76h-1.22v-4.71a2.43,2.43,0,0,0-2.52-2.7,3.58,3.58,0,0,0-2.85,1.54v5.87h-1.22v-8.27h1.22v1a4.21,4.21,0,0,1,3.06-1.25A3.45,3.45,0,0,1,1036.66,510.34Z"/><path class="cls-1" d="M1044.68,515.08a6.17,6.17,0,0,1-1.79.28c-1.9,0-2.87-1.09-2.87-3.23v-4.25h-2.2v-1.05h2.2v-3.06h1.22v3.06h3.13v1.05h-3.13v4.25c0,1.5.59,2.11,1.84,2.11a5.36,5.36,0,0,0,1.4-.22Z"/><path class="cls-1" d="M1054.17,511.44l-.08,0v0h-7a3,3,0,0,0,3.09,2.83,2.51,2.51,0,0,0,2.4-1.27h1.33a3.77,3.77,0,0,1-3.76,2.33,4.36,4.36,0,0,1,0-8.72,4,4,0,0,1,4,4.32C1054.18,511.1,1054.18,511.28,1054.17,511.44Zm-7.07-.94H1053a2.81,2.81,0,0,0-2.83-2.83A3,3,0,0,0,1047.1,510.5Z"/><path class="cls-1" d="M1064.64,515.36a4.17,4.17,0,0,1-8.2,1h1.25a2.67,2.67,0,0,0,2.83,2,2.74,2.74,0,0,0,2.88-3h0v-1.45a4.48,4.48,0,0,1-3.11,1.19,4.28,4.28,0,0,1,0-8.56,4.51,4.51,0,0,1,3.11,1.18v-.89h1.22Zm-1.22-2.89v-3.3a3.5,3.5,0,0,0-3-1.56,3.21,3.21,0,0,0,0,6.41A3.49,3.49,0,0,0,1063.42,512.47Z"/><path class="cls-1" d="M1069,508.26a3.94,3.94,0,0,1,3.24-1.65v1.17a3.81,3.81,0,0,0-3.24,1.91v5.41h-1.21v-8.27H1069Z"/><path class="cls-1" d="M1081.91,515.1h-1.21v-.92a4.2,4.2,0,0,1-3,1.15,4.36,4.36,0,0,1,0-8.72,4.2,4.2,0,0,1,3,1.15v-.93h1.21Zm-1.21-2.35v-3.56a3.35,3.35,0,0,0-2.83-1.5,3.29,3.29,0,0,0,0,6.57A3.36,3.36,0,0,0,1080.7,512.75Z"/><path class="cls-1" d="M1090.35,515.08a6.17,6.17,0,0,1-1.79.28c-1.9,0-2.87-1.09-2.87-3.23v-4.25h-2.2v-1.05h2.2v-3.06h1.22v3.06H1090v1.05h-3.13v4.25c0,1.5.59,2.11,1.84,2.11a5.36,5.36,0,0,0,1.4-.22Z"/><path class="cls-1" d="M1099.83,511.44l-.07,0v0h-7a3,3,0,0,0,3.1,2.83,2.51,2.51,0,0,0,2.4-1.27h1.32a3.74,3.74,0,0,1-3.75,2.33,4.36,4.36,0,0,1,0-8.72,4,4,0,0,1,4,4.32A4.26,4.26,0,0,1,1099.83,511.44Zm-7.07-.94h5.86a2.81,2.81,0,0,0-2.83-2.83A3,3,0,0,0,1092.76,510.5Z"/><path class="cls-1" d="M1110.29,515.1h-1.22v-.92a4.17,4.17,0,0,1-3,1.13,4.35,4.35,0,0,1,0-8.7,4.17,4.17,0,0,1,3,1.13v-5.35h1.22Zm-1.22-2.37v-3.54a3.31,3.31,0,0,0-2.82-1.52,3.29,3.29,0,0,0,0,6.57A3.32,3.32,0,0,0,1109.07,512.73Z"/><path class="cls-1" d="M1127.32,506.22h-1.26c-.28-1.49-1.36-2.45-3.4-2.45-1.84,0-3.06.89-3.06,2.31,0,1.11.88,1.78,2.49,2.07l1.84.36c2.17.41,3.39,1.43,3.39,3.17,0,2.22-1.81,3.68-4.53,3.68-2.92,0-4.78-1.52-5.07-4.15H1119c.31,1.9,1.63,3,3.87,3,2,0,3.19-1,3.19-2.4,0-1-.72-1.79-2.29-2.08l-2.12-.41c-2.23-.41-3.36-1.54-3.36-3.18,0-2.1,1.74-3.49,4.31-3.49S1127,503.82,1127.32,506.22Z"/><path class="cls-1" d="M1137.59,511.44l-.07,0v0h-7a3,3,0,0,0,3.1,2.83A2.52,2.52,0,0,0,1136,513h1.32a3.75,3.75,0,0,1-3.76,2.33,4.36,4.36,0,0,1,0-8.72,4,4,0,0,1,4,4.32A4.26,4.26,0,0,1,1137.59,511.44Zm-7.07-.94h5.86a2.81,2.81,0,0,0-2.83-2.83A3,3,0,0,0,1130.52,510.5Z"/><path class="cls-1" d="M1141.23,508.26a3.94,3.94,0,0,1,3.24-1.65v1.17a3.8,3.8,0,0,0-3.24,1.91v5.41H1140v-8.27h1.22Z"/><path class="cls-1" d="M1150.63,515.1h-1.13l-3.94-8.27h1.31l3.18,6.71,3.19-6.71h1.32Z"/><path class="cls-1" d="M1156.73,503.69a.85.85,0,0,1,1.7,0,.85.85,0,0,1-1.7,0Zm1.45,11.41H1157v-8.27h1.22Z"/><path class="cls-1" d="M1167.81,512.34h1.27a3.78,3.78,0,0,1-3.88,3,4.36,4.36,0,0,1,0-8.72,3.78,3.78,0,0,1,3.88,3h-1.27a2.51,2.51,0,0,0-2.61-1.86,3.23,3.23,0,0,0,0,6.46A2.51,2.51,0,0,0,1167.81,512.34Z"/><path class="cls-1" d="M1179.34,511.44l-.07,0v0h-7a3,3,0,0,0,3.1,2.83,2.52,2.52,0,0,0,2.4-1.27h1.32a3.75,3.75,0,0,1-3.76,2.33,4.36,4.36,0,0,1,0-8.72,4,4,0,0,1,4,4.32A4.26,4.26,0,0,1,1179.34,511.44Zm-7.07-.94h5.85a2.81,2.81,0,0,0-2.82-2.83A3,3,0,0,0,1172.27,510.5Z"/><path class="cls-1" d="M1182.33,512.54c.25,1.12,1.13,1.8,2.74,1.8,1.34,0,2.26-.57,2.26-1.46s-.59-1.18-1.44-1.31l-1.88-.32c-1.37-.22-2.45-.83-2.45-2.22s1.33-2.45,3.31-2.45c1.69,0,3.44.73,3.58,2.63h-1.12c-.16-1.08-1.06-1.65-2.46-1.65s-2.11.57-2.11,1.38c0,.63.45,1.11,1.63,1.29l1.65.28c1.2.2,2.47.72,2.47,2.3s-1.45,2.55-3.47,2.55-3.58-.94-3.85-2.82Z"/><path class="cls-1" d="M505.58,557.13h-1.26c-.28-1.49-1.36-2.46-3.4-2.46-1.84,0-3.06.9-3.06,2.31,0,1.11.88,1.79,2.49,2.08l1.84.36c2.17.41,3.39,1.43,3.39,3.17,0,2.22-1.81,3.68-4.53,3.68-2.92,0-4.78-1.52-5.07-4.15h1.26c.3,1.9,1.62,3,3.86,3,1.95,0,3.19-1,3.19-2.4,0-1-.72-1.79-2.29-2.08l-2.12-.41c-2.23-.41-3.36-1.54-3.36-3.18,0-2.1,1.74-3.5,4.31-3.5S505.27,554.73,505.58,557.13Z"/><path class="cls-1" d="M516,566h-1.22v-.91a4.18,4.18,0,0,1-3,1.15,4.36,4.36,0,0,1,0-8.72,4.18,4.18,0,0,1,3,1.15v-.94H516Zm-1.22-2.34V560.1a3.35,3.35,0,0,0-2.82-1.51,3.29,3.29,0,0,0,0,6.57A3.34,3.34,0,0,0,514.81,563.66Z"/><path class="cls-1" d="M527.06,566.27a4.17,4.17,0,0,1-8.2,1h1.26a2.65,2.65,0,0,0,2.82,2,2.74,2.74,0,0,0,2.88-3h0v-1.45a4.47,4.47,0,0,1-3.11,1.18,4.28,4.28,0,0,1,0-8.55,4.51,4.51,0,0,1,3.11,1.18v-.9h1.22Zm-1.22-2.9v-3.29a3.46,3.46,0,0,0-3-1.56,3.21,3.21,0,0,0,0,6.41A3.46,3.46,0,0,0,525.84,563.37Z"/><path class="cls-1" d="M538,566h-1.22v-.91a4.19,4.19,0,0,1-3,1.15,4.36,4.36,0,0,1,0-8.72,4.19,4.19,0,0,1,3,1.15v-.94H538Zm-1.22-2.34V560.1a3.36,3.36,0,0,0-2.83-1.51,3.29,3.29,0,0,0,0,6.57A3.35,3.35,0,0,0,536.78,563.66Z"/><path class="cls-1" d="M542.24,559.17a3.94,3.94,0,0,1,3.24-1.65v1.16a3.84,3.84,0,0,0-3.24,1.92V566H541v-8.27h1.21Z"/><path class="cls-1" d="M555.94,561.87a4.3,4.3,0,0,1-4.28,4.37,4.15,4.15,0,0,1-3-1.17v5.37h-1.22V557.73h1.22v.95a4.18,4.18,0,0,1,3-1.16A4.29,4.29,0,0,1,555.94,561.87Zm-1.22,0a3.25,3.25,0,0,0-3.2-3.28,3.33,3.33,0,0,0-2.85,1.54v3.49a3.31,3.31,0,0,0,2.85,1.54A3.24,3.24,0,0,0,554.72,561.87Z"/><path class="cls-1" d="M565.93,566h-1.22v-1a4.24,4.24,0,0,1-3,1.23,3.43,3.43,0,0,1-3.53-3.76v-4.78h1.22v4.71a2.43,2.43,0,0,0,2.52,2.72,3.57,3.57,0,0,0,2.83-1.54v-5.89h1.22Z"/><path class="cls-1" d="M570.17,559.17a3.94,3.94,0,0,1,3.24-1.65v1.16a3.83,3.83,0,0,0-3.24,1.92V566H569v-8.27h1.22Z"/><path class="cls-1" d="M584.56,553.83c2.8,0,4.66,1.61,4.66,4S587.3,562,584.4,562h-2.81v4h-1.27V553.83Zm0,7c2.08,0,3.45-1.2,3.45-3s-1.37-2.86-3.45-2.86h-2.92v5.83Z"/><path class="cls-1" d="M599.1,561.87a4.4,4.4,0,1,1-4.39-4.35A4.33,4.33,0,0,1,599.1,561.87Zm-1.22,0a3.17,3.17,0,1,0-3.17,3.29A3.16,3.16,0,0,0,597.88,561.87Z"/><path class="cls-1" d="M602.81,566h-1.22V553.3h1.22Z"/><path class="cls-1" d="M605.85,554.6a.85.85,0,0,1,1.7,0,.85.85,0,0,1-1.7,0ZM607.3,566h-1.22v-8.27h1.22Z"/><path class="cls-1" d="M616.93,563.25h1.27a3.78,3.78,0,0,1-3.88,3,4.36,4.36,0,0,1,0-8.72,3.78,3.78,0,0,1,3.88,3h-1.27a2.51,2.51,0,0,0-2.61-1.86,3.23,3.23,0,0,0,0,6.46A2.51,2.51,0,0,0,616.93,563.25Z"/><path class="cls-1" d="M628.46,562.35l-.07,0v0h-7a3,3,0,0,0,3.1,2.83,2.49,2.49,0,0,0,2.39-1.27h1.33a3.76,3.76,0,0,1-3.76,2.33,4.36,4.36,0,0,1,0-8.72,4,4,0,0,1,4,4.31A4.35,4.35,0,0,1,628.46,562.35Zm-7.07-1h5.85a2.8,2.8,0,0,0-2.82-2.82A3,3,0,0,0,621.39,561.4Z"/><path class="cls-1" d="M541.25,580.93H540c-.28-1.49-1.36-2.45-3.4-2.45-1.84,0-3.06.89-3.06,2.31,0,1.1.88,1.78,2.49,2.07l1.84.36c2.17.41,3.39,1.43,3.39,3.17,0,2.22-1.81,3.68-4.53,3.68-2.92,0-4.78-1.52-5.07-4.15h1.26c.3,1.9,1.63,3,3.86,3,2,0,3.19-.95,3.19-2.4,0-1-.72-1.79-2.29-2.08l-2.11-.41c-2.24-.41-3.37-1.54-3.37-3.18,0-2.1,1.74-3.49,4.31-3.49S540.94,578.53,541.25,580.93Z"/><path class="cls-1" d="M549.16,589.79a6.13,6.13,0,0,1-1.79.28c-1.9,0-2.86-1.09-2.86-3.23v-4.25h-2.2v-1.05h2.2v-3.06h1.21v3.06h3.14v1.05h-3.14v4.25c0,1.5.6,2.11,1.85,2.11a5.23,5.23,0,0,0,1.39-.22Z"/><path class="cls-1" d="M558.83,589.81h-1.22v-.92a4.19,4.19,0,0,1-3,1.15,4.36,4.36,0,0,1,0-8.72,4.19,4.19,0,0,1,3,1.15v-.93h1.22Zm-1.22-2.35V583.9a3.35,3.35,0,0,0-2.83-1.5,3.29,3.29,0,0,0,0,6.57A3.36,3.36,0,0,0,557.61,587.46Z"/><path class="cls-1" d="M567.26,589.79a6.13,6.13,0,0,1-1.79.28c-1.9,0-2.86-1.09-2.86-3.23v-4.25h-2.2v-1.05h2.2v-3.06h1.21v3.06H567v1.05h-3.14v4.25c0,1.5.59,2.11,1.85,2.11a5.23,5.23,0,0,0,1.39-.22Z"/><path class="cls-1" d="M569.59,578.4a.82.82,0,0,1,.84-.82.83.83,0,0,1,.86.82.82.82,0,0,1-.86.83A.81.81,0,0,1,569.59,578.4ZM571,589.81h-1.22v-8.27H571Z"/><path class="cls-1" d="M582.53,585.67a4.4,4.4,0,1,1-4.38-4.35A4.32,4.32,0,0,1,582.53,585.67Zm-1.22,0a3.17,3.17,0,1,0-6.33,0,3.17,3.17,0,1,0,6.33,0Z"/><path class="cls-1" d="M592.74,585.05v4.76h-1.22V585.1a2.43,2.43,0,0,0-2.53-2.7,3.56,3.56,0,0,0-2.84,1.54v5.87h-1.22v-8.27h1.22v1a4.21,4.21,0,0,1,3.06-1.25A3.45,3.45,0,0,1,592.74,585.05Z"/></g></g></svg>