<svg xmlns="http://www.w3.org/2000/svg" viewBox="0 0 85.78 87.65"><defs><style>.cls-1{fill:#fff;}.cls-2{fill:none;stroke:#fff;stroke-miterlimit:10;stroke-width:5.29px;}</style></defs><g id="Layer_2" data-name="Layer 2"><g id="Layer_1-2" data-name="Layer 1"><path class="cls-1" d="M58.93,71.07c-5,0-8.86-3.4-9.54-8.62-1-7.29-1.41-7.82-8.68-9.8a9.07,9.07,0,0,1-6.93-9.55,9.35,9.35,0,0,1,18-3.29A12.38,12.38,0,0,1,52.47,44c.15,4.21,3.3,7.79,7.19,8,3.32.17,6.32-2.91,6.79-7.1.5-4.44,2.59-7.66,6.94-9.08a9.62,9.62,0,0,1,10.39,3.13,9.26,9.26,0,0,1,1.15,9.64,9.59,9.59,0,0,1-8.12,5.9c-5.57.73-7.33,2.4-8.46,8.21-1,5.19-4.57,8.38-9.42,8.41"/><path class="cls-1" d="M26.35,71.05a9.32,9.32,0,0,1-9.6-8.86c-.44-5-3-7.66-8-8.35A9.65,9.65,0,0,1,0,43.35a9,9,0,0,1,9.15-8.51c5.5,0,9.35,3.74,9.72,9.46A8.14,8.14,0,0,0,26,52a21.43,21.43,0,0,1,3.83.84c4.7,1.73,7.37,6.11,6.54,10.52-.89,4.73-4.85,7.74-10,7.65"/><path class="cls-1" d="M42.83,87.65a8.84,8.84,0,0,1-9-9.28,9.2,9.2,0,0,1,9.28-9.13,9.47,9.47,0,0,1,9.14,9.41,9.2,9.2,0,0,1-9.42,9"/><path class="cls-2" d="M45.82,21.69s-1.64-18,18.94-19C64.76,2.74,68,21.28,45.82,21.69Z"/></g></g></svg>