<svg xmlns="http://www.w3.org/2000/svg" viewBox="0 0 1155.8 139.2"><defs><style>.cls-1{fill:#2c2d2c;}</style></defs><g id="Layer_2" data-name="Layer 2"><g id="Layer_1-2" data-name="Layer 1"><path class="cls-1" d="M132.23,74.09C132.23,110.4,103.8,139,66,139,28.43,139,0,110.4,0,74.09S28.43,9.17,66,9.17C103.8,9.17,132.23,37.78,132.23,74.09Zm-31.55,0C100.68,54.47,86.2,38,66,38S31.36,54.47,31.36,74.09,45.85,110.22,66,110.22,100.68,93.71,100.68,74.09Z"/><path class="cls-1" d="M239.89,136.45H210.18v-5.87c-7.15,5.5-14.86,8.62-24.39,8.62-22.56,0-38-15.59-38-40.9V47.5h29.71V93.71c0,12.66,6.61,18.71,16.33,18.71,5.5,0,11.18-3.12,16.32-8.8V47.5h29.71Z"/><path class="cls-1" d="M320.4,74.28c-14.49.55-23.66,4.4-30.63,11.37v50.8H260.06V47.5h29.71V57c7.89-6.79,17.43-11,30.63-11Z"/><path class="cls-1" d="M466.57,84.73H498.3C494.45,117,469.87,139,435.76,139c-37.6,0-66-27.32-66-64.92s28.42-64.92,66-64.92c34.11,0,58.69,22,62.54,54.29H466.57c-3.49-15.59-14.49-25.31-31-25.31-20.36,0-34.48,15.22-34.48,35.94s14.12,36,34.48,36C452.08,110,463.08,100.32,466.57,84.73Z"/><path class="cls-1" d="M545.25,136.45H515.54V6.24h29.71Z"/><path class="cls-1" d="M563.59,16.87C563.59,7.15,571.29,0,581,0c9.54,0,17.43,7.15,17.43,16.87,0,9.54-7.89,16.69-17.43,16.69C571.29,33.56,563.59,26.41,563.59,16.87Zm32.46,119.58H566.34V47.5h29.71Z"/><path class="cls-1" d="M704.44,100.13l.19.55H641.17c2.38,8.07,8.62,14.31,20,14.31,6.24,0,11-2.39,13.57-6.42h29.35c-4.22,18.34-21.28,29.89-43.29,29.89-29.16,0-48.6-19.44-48.6-46.58,0-27,18.89-46.4,47.32-46.4,25.86,0,45.48,17.79,45.48,44.57A62,62,0,0,1,704.44,100.13ZM640.8,83.26h36.32c-1.66-9.72-8.07-14.85-17.61-14.85C649.42,68.41,643,74.28,640.8,83.26Z"/><path class="cls-1" d="M811.92,85.65v50.8H782v-46c0-12.65-6.41-18.7-16.13-18.7-5.51,0-11.38,3.12-16.51,9v55.76H719.67V47.5h29.71v6A38.08,38.08,0,0,1,774,44.75C796.51,44.75,811.92,60.34,811.92,85.65Z"/><path class="cls-1" d="M901.05,134.8c-11.55,3.66-18.16,4.4-27,4.4-21.46,0-35.76-15.78-35.76-39.8V73H820.91V47.5h17.42V17.24H868V47.5H898.3V73H868V98.48c0,9,5.13,13.39,13.94,13.39,4.21,0,9.17-.92,15.77-2.2Z"/><path class="cls-1" d="M1001.19,100.13l.18.55H937.91c2.39,8.07,8.62,14.31,20,14.31,6.24,0,11-2.39,13.58-6.42h29.34c-4.22,18.34-21.28,29.89-43.28,29.89-29.16,0-48.6-19.44-48.6-46.58,0-27,18.89-46.4,47.31-46.4,25.86,0,45.49,17.79,45.49,44.57A62,62,0,0,1,1001.19,100.13ZM937.55,83.26h36.31c-1.65-9.72-8.07-14.85-17.61-14.85C946.17,68.41,939.75,74.28,937.55,83.26Z"/><path class="cls-1" d="M1047.22,136.45h-29.71V6.24h29.71Z"/><path class="cls-1" d="M1155.25,100.13l.18.55H1092c2.39,8.07,8.62,14.31,20,14.31,6.24,0,11-2.39,13.58-6.42h29.34c-4.22,18.34-21.28,29.89-43.28,29.89-29.16,0-48.6-19.44-48.6-46.58,0-27,18.89-46.4,47.31-46.4,25.86,0,45.49,17.79,45.49,44.57A62,62,0,0,1,1155.25,100.13Zm-63.64-16.87h36.31c-1.65-9.72-8.07-14.85-17.61-14.85C1100.23,68.41,1093.81,74.28,1091.61,83.26Z"/></g></g></svg>