<svg xmlns="http://www.w3.org/2000/svg" viewBox="0 0 522.5 389.36"><defs><style>.cls-1{fill:#2c2d2c;}</style></defs><g id="Layer_2" data-name="Layer 2"><g id="Layer_1-2" data-name="Layer 1"><path class="cls-1" d="M150.38,127.46H120.49L95.37,51.35,70.24,127.46H40.35L0,2H32.83L56.12,79.59,82.53,2.38V2H108.2l26.41,77.39L157.9,2h32.83Z"/><path class="cls-1" d="M277.48,90.41l.19.55H214.21c2.38,8.07,8.62,14.31,20,14.31,6.24,0,11-2.39,13.57-6.42h29.35c-4.22,18.34-21.28,29.89-43.29,29.89-29.16,0-48.6-19.44-48.6-46.58,0-27,18.89-46.4,47.32-46.4,25.86,0,45.48,17.79,45.48,44.57A62,62,0,0,1,277.48,90.41ZM213.84,73.54h36.32c-1.65-9.72-8.07-14.85-17.61-14.85C222.46,58.69,216,64.56,213.84,73.54Z"/><path class="cls-1" d="M293.26,29c-6.42-2.75-9.54-7.71-9.54-13.39C283.72,7,291.06,0,300.23,0s16.5,6.79,16.5,15.77c0,3.85-.18,6.24-5.5,15.22l-11,18.34H283.72Z"/><path class="cls-1" d="M384.77,64.56c-14.48.55-23.65,4.4-30.62,11.37v50.8H324.44V37.78h29.71v9.54c7.88-6.79,17.42-11,30.62-11Z"/><path class="cls-1" d="M485.09,90.41l.19.55H421.82c2.38,8.07,8.62,14.31,20,14.31,6.24,0,11-2.39,13.57-6.42h29.34c-4.21,18.34-21.27,29.89-43.28,29.89-29.16,0-48.6-19.44-48.6-46.58,0-27,18.89-46.4,47.32-46.4,25.86,0,45.48,17.79,45.48,44.57A62,62,0,0,1,485.09,90.41ZM421.45,73.54h36.32c-1.65-9.72-8.07-14.85-17.61-14.85C430.07,58.69,423.65,64.56,421.45,73.54Z"/><path class="cls-1" d="M120.12,346.81h-31V300H38.33v46.77h-31V222.1h31v50.07h50.8V222.1h31Z"/><path class="cls-1" d="M139,227.23c0-9.72,7.7-16.87,17.42-16.87,9.54,0,17.42,7.15,17.42,16.87,0,9.54-7.88,16.69-17.42,16.69C146.72,243.92,139,236.77,139,227.23Zm32.46,119.58H141.77V257.86h29.71Z"/><path class="cls-1" d="M252.54,284.64c-14.49.55-23.66,4.4-30.63,11.37v50.8H192.2V257.86h29.71v9.54c7.89-6.79,17.42-11,30.63-11Z"/><path class="cls-1" d="M265.38,227.23c0-9.72,7.7-16.87,17.42-16.87,9.54,0,17.42,7.15,17.42,16.87,0,9.54-7.88,16.69-17.42,16.69C273.08,243.92,265.38,236.77,265.38,227.23Zm32.46,119.58H268.13V257.86h29.71Z"/><path class="cls-1" d="M410.81,296v50.8H380.92v-46c0-12.66-6.42-18.71-16.14-18.71-5.5,0-11.37,3.12-16.51,9v55.75H318.56V257.86h29.71v6.05a38.08,38.08,0,0,1,24.58-8.8C395.41,255.11,410.81,270.7,410.81,296Z"/><path class="cls-1" d="M522.5,345.34c0,27.88-19.8,44-47.68,44-27,0-46.58-15.41-48.05-38.52h29.34c1.47,8.26,7.71,13.39,18.71,13.39,10.09,0,18-6.23,18-18.34v-8.43a46.9,46.9,0,0,1-24.21,6.23c-24,0-44.19-19.26-44.19-43.28,0-27.14,20.17-45.67,44.19-45.67a45.23,45.23,0,0,1,24.21,6.61v-3.49H522.5Zm-29.71-33.56V287.21A23.28,23.28,0,0,0,474.45,279c-12.1,0-20.9,8.62-20.9,21.46,0,9.72,8.8,19.62,20.9,19.62A23.27,23.27,0,0,0,492.79,311.78Z"/></g></g></svg>