<svg xmlns="http://www.w3.org/2000/svg" viewBox="0 0 159.08 126.46"><defs><style>.cls-1{fill:#fff;}</style></defs><g id="Layer_2" data-name="Layer 2"><g id="Layer_1-2" data-name="Layer 1"><path class="cls-1" d="M12,76.74a2.33,2.33,0,1,1,2.33-2.33A2.33,2.33,0,0,1,12,76.74Z"/><path class="cls-1" d="M152.09,22.37H7a7,7,0,0,0-7,7v90.11a7,7,0,0,0,7,7H119.06a2.33,2.33,0,0,0,0-4.66H7a2.34,2.34,0,0,1-2.33-2.33V29.36A2.34,2.34,0,0,1,7,27h145.1a2.34,2.34,0,0,1,2.33,2.33v90.11a2.34,2.34,0,0,1-2.33,2.33H129.21a2.33,2.33,0,0,0,0,4.66h22.88a7,7,0,0,0,7-7V29.36A7,7,0,0,0,152.09,22.37Z"/><path class="cls-1" d="M21,54.64A2.34,2.34,0,0,0,18.64,57V111.7A2.34,2.34,0,0,0,21,114H144.32a2.33,2.33,0,0,0,2.33-2.33V88.39a2.3,2.3,0,0,0-.68-1.64l-2.43-2.43V64.5L146,62.08a2.32,2.32,0,0,0,.68-1.65V37.13a2.33,2.33,0,0,0-2.33-2.33H21a2.33,2.33,0,0,0-2.33,2.33v9.69a2.33,2.33,0,0,0,4.66,0V39.46H142v20l-2.42,2.42a2.33,2.33,0,0,0-.69,1.65V85.29a2.33,2.33,0,0,0,.69,1.65L142,89.36v20H23.3V57A2.33,2.33,0,0,0,21,54.64Z"/><path class="cls-1" d="M19.49,10.71,35,16.92a2.36,2.36,0,0,0,.87.17h88.55a7,7,0,0,0,7-7V7a7,7,0,0,0-7-7H96.9a2.33,2.33,0,0,0,0,4.66h12.62v7.77H36.33l-9.7-3.89,9.7-3.88H86.74a2.33,2.33,0,0,0,0-4.66H35.89A2.36,2.36,0,0,0,35,.17L19.49,6.38a2.33,2.33,0,0,0,0,4.33Zm94.69-6.05h10.26A2.34,2.34,0,0,1,126.77,7V10.1a2.34,2.34,0,0,1-2.33,2.33H114.18Z"/></g></g></svg>