<svg xmlns="http://www.w3.org/2000/svg" viewBox="0 0 141.16 141.17"><defs><style>.cls-1{fill:#fff;}</style></defs><g id="Layer_2" data-name="Layer 2"><g id="Layer_1-2" data-name="Layer 1"><g id="media-monitor-screen-Digital_Marketing" data-name="media-monitor-screen-Digital Marketing"><path class="cls-1" d="M134.11,30.59H129.4V28.23h2.35a7.06,7.06,0,1,0,0-14.11H129.4V2.35a2.27,2.27,0,0,0-1-1.88A2.36,2.36,0,0,0,126.37.1L96.11,9.41H80a2.36,2.36,0,0,0-2.35,2.36v2.35H72.93a2.35,2.35,0,0,0-2.35,2.35v9.41a2.35,2.35,0,0,0,2.35,2.35h4.71v2.36H63.52V9.41a2.35,2.35,0,0,0-2.35-2.35H14.12a2.36,2.36,0,0,0-2.36,2.35V30.59H7.06A7.07,7.07,0,0,0,0,37.65v75.28A7.07,7.07,0,0,0,7.06,120H61.17v7.06H47.05a2.35,2.35,0,0,0-2.35,2.35v9.41a2.36,2.36,0,0,0,2.35,2.36H94.11a2.36,2.36,0,0,0,2.35-2.36V129.4a2.35,2.35,0,0,0-2.35-2.35H80V120h54.12a7.07,7.07,0,0,0,7-7.06V37.65A7.07,7.07,0,0,0,134.11,30.59ZM129.4,18.82h2.35a2.36,2.36,0,1,1,0,4.71H129.4ZM98.81,13.51l25.88-8V36.82l-25.88-8Zm-16.46.61H94.11V28.23H82.35Zm6.7,18.82L87.36,44.7H84.7V32.94ZM75.29,23.53V18.82h2.35v4.71ZM16.47,11.77H58.82V44.7H16.47Zm75.29,120v4.71H49.41v-4.71Zm-25.88-4.7V120h9.41v7.06Zm70.58-14.12a2.36,2.36,0,0,1-2.35,2.36H7.06a2.36,2.36,0,0,1-2.35-2.36v-2.35H136.46Zm0-7.06H4.71V37.65a2.36,2.36,0,0,1,2.35-2.36h4.7V47.06a2.36,2.36,0,0,0,2.36,2.35H61.17a2.35,2.35,0,0,0,2.35-2.35V35.29H80V47.06a2.36,2.36,0,0,0,2.36,2.35H89.4a2.34,2.34,0,0,0,2.33-2L93.8,32.94h2.31l30.26,9.32a2.23,2.23,0,0,0,.68.09A2.39,2.39,0,0,0,129.4,40V35.29h4.71a2.36,2.36,0,0,1,2.35,2.36Z"/><path class="cls-1" d="M11.76,101.17H72.93a2.36,2.36,0,0,0,2.36-2.35V61.17a2.36,2.36,0,0,0-2.36-2.35H11.76a2.35,2.35,0,0,0-2.35,2.35V98.82A2.35,2.35,0,0,0,11.76,101.17Zm2.36-4.71V65.38L41.12,82a2.37,2.37,0,0,0,2.46,0l27-16.62V96.46Zm6-32.93H64.62L42.35,77.23Z"/><path class="cls-1" d="M82.35,87.05h4.7v7.06a2.35,2.35,0,0,0,2.35,2.35h40a2.35,2.35,0,0,0,2.35-2.35V65.88a2.35,2.35,0,0,0-2.35-2.35h-2.35V56.47a2.36,2.36,0,0,0-2.36-2.36H82.35A2.36,2.36,0,0,0,80,56.47V84.7A2.36,2.36,0,0,0,82.35,87.05Zm44.7,4.71H91.76V68.23h35.29ZM84.7,58.82h37.64v4.71H89.4a2.35,2.35,0,0,0-2.35,2.35V82.35H84.7Z"/><path class="cls-1" d="M96.46,72.94h4.71v4.7H96.46Z"/><path class="cls-1" d="M105.87,72.94h16.47v4.7H105.87Z"/><path class="cls-1" d="M96.46,82.35h9.41v4.7H96.46Z"/><path class="cls-1" d="M110.58,82.35h11.76v4.7H110.58Z"/><path class="cls-1" d="M31.7,37.3a2.39,2.39,0,0,0,2.29.1l14.12-7.06a2.35,2.35,0,0,0,1-3.15,2.39,2.39,0,0,0-1-1.06L34,19.07a2.36,2.36,0,0,0-3.16,1.05,2.42,2.42,0,0,0-.24,1.06V35.29A2.37,2.37,0,0,0,31.7,37.3ZM35.29,25l6.5,3.25-6.5,3.26Z"/></g></g></g></svg>