<svg xmlns="http://www.w3.org/2000/svg" viewBox="0 0 146.96 144.95"><defs><style>.cls-1{fill:#fff;}</style></defs><g id="Layer_2" data-name="Layer 2"><g id="Layer_1-2" data-name="Layer 1"><path class="cls-1" d="M136.37,66.6A9.83,9.83,0,0,0,127,73.54h-6.24l-2.38-10.29a2.91,2.91,0,0,0-2.8-2.22h-5.7A45.21,45.21,0,0,0,112,49.12h15.78a9.82,9.82,0,1,0,0-5.74H112a49.14,49.14,0,0,0-2-11.9h5.62a2.91,2.91,0,0,0,2.8-2.23L120.75,19H127a9.8,9.8,0,1,0,0-5.74h-8.53a2.86,2.86,0,0,0-2.75,2.08.83.83,0,0,0,0,.15l-2.38,10.29h-5.51A43.77,43.77,0,0,0,99.87,14a2.87,2.87,0,1,0-4.18,3.93,37.58,37.58,0,0,1,5.66,7.81H92.21a2.87,2.87,0,0,0,0,5.74h11.7a43,43,0,0,1,2.34,11.9H88.52a2.87,2.87,0,1,0,0,5.74h17.74A38.69,38.69,0,0,1,103.76,61H92.21a2.87,2.87,0,1,0,0,5.74H101a95.78,95.78,0,0,1-6,8.76C90.54,81.65,85.91,88,84,97.16H50.06a41.17,41.17,0,0,0-4.77-12.42,5.8,5.8,0,0,0,4.31-5.59v-.82a33.8,33.8,0,0,0,6.61-2.75l.59.59a5.78,5.78,0,0,0,8.17,0l5.76-5.76a5.8,5.8,0,0,0,0-8.18l-.59-.59A33.63,33.63,0,0,0,72.89,55h.82a5.78,5.78,0,0,0,5.78-5.78V41.09a5.78,5.78,0,0,0-5.78-5.78h-.82a33.88,33.88,0,0,0-2.75-6.62l.59-.59a5.79,5.79,0,0,0,0-8.17L65,14.16a5.78,5.78,0,0,0-8.17,0l-.59.59A33.8,33.8,0,0,0,49.6,12v-.82a5.84,5.84,0,0,0-.18-1.4A38.45,38.45,0,0,1,67,5.74h.07a38.25,38.25,0,0,1,8.4.84A2.87,2.87,0,1,0,76.68,1a43.42,43.42,0,0,0-9.63-1A44.24,44.24,0,0,0,45.11,5.55a5.49,5.49,0,0,0-1.29-.15H35.67a5.79,5.79,0,0,0-5.78,5.78V12a33.8,33.8,0,0,0-6.61,2.75l-.59-.59a5.78,5.78,0,0,0-8.17,0L8.76,19.93a5.79,5.79,0,0,0,0,8.17l.59.59A33.88,33.88,0,0,0,6.6,35.31H5.78A5.78,5.78,0,0,0,0,41.09v8.15A5.78,5.78,0,0,0,5.78,55H6.6a33.63,33.63,0,0,0,2.75,6.62l-.59.59a5.8,5.8,0,0,0,0,8.18l5.76,5.76a5.78,5.78,0,0,0,8.17,0l.59-.59a33.8,33.8,0,0,0,6.61,2.75v.82a5.79,5.79,0,0,0,5.78,5.78h3a38,38,0,0,1,5.89,14,9.2,9.2,0,0,0-1.26,13.81A9.2,9.2,0,0,0,47.75,128v5.74A11.2,11.2,0,0,0,58.94,145h16.2a11.21,11.21,0,0,0,11.2-11.19V128a9.21,9.21,0,0,0,4.45-15.29,9.22,9.22,0,0,0-1.27-13.82c1.56-8.29,5.73-14,10.14-20a81.57,81.57,0,0,0,7.85-12.16h5.78l2.38,10.29a2.9,2.9,0,0,0,2.79,2.22H127a9.81,9.81,0,1,0,9.38-12.68Zm.79-24.42a4.07,4.07,0,1,1-4.06,4.08A4.07,4.07,0,0,1,137.16,42.18ZM136.37,12a4.07,4.07,0,1,1-4.06,4.06A4.07,4.07,0,0,1,136.37,12ZM43.86,76.11v3s0,0,0,0H35.67s0,0,0,0v-3a2.88,2.88,0,0,0-2.23-2.8,28.26,28.26,0,0,1-9-3.75,2.87,2.87,0,0,0-3.57.39l-2.16,2.16a0,0,0,0,1-.05,0l-5.76-5.76a.06.06,0,0,1,0-.06L15,64.13a2.86,2.86,0,0,0,.39-3.56,28.41,28.41,0,0,1-3.75-9,2.88,2.88,0,0,0-2.8-2.24h-3s0,0,0,0V41.09s0,0,0,0h3a2.88,2.88,0,0,0,2.8-2.24,28.26,28.26,0,0,1,3.75-9A2.87,2.87,0,0,0,15,26.2L12.82,24a.06.06,0,0,1,0-.06l5.76-5.76h.05l2.16,2.16a2.87,2.87,0,0,0,3.57.39,28.49,28.49,0,0,1,9-3.75,2.88,2.88,0,0,0,2.23-2.8v-3s0,0,0,0h8.15s0,0,0,0v3A2.88,2.88,0,0,0,46.1,17a28.53,28.53,0,0,1,9,3.75,2.87,2.87,0,0,0,3.57-.39l2.16-2.16h0L66.67,24a.06.06,0,0,1,0,.06L64.51,26.2a2.89,2.89,0,0,0-.39,3.57,28.26,28.26,0,0,1,3.75,9,2.88,2.88,0,0,0,2.8,2.24h3s0,0,0,0v8.15s0,0,0,0h-3a2.88,2.88,0,0,0-2.8,2.24,28.41,28.41,0,0,1-3.75,9,2.87,2.87,0,0,0,.39,3.56l2.16,2.16a.06.06,0,0,1,0,.06l-5.76,5.76a0,0,0,0,1,0,0L58.7,70a2.87,2.87,0,0,0-3.57-.39,28.26,28.26,0,0,1-9,3.75,2.88,2.88,0,0,0-2.23,2.8ZM80.6,133.76a5.46,5.46,0,0,1-5.46,5.45H58.94a5.46,5.46,0,0,1-5.45-5.45v-5.47H80.6v5.47Zm3.52-11.21H50a3.48,3.48,0,1,1,0-7H84.12a3.48,3.48,0,0,1,0,7Zm0-12.69H50a3.48,3.48,0,1,1,0-7H84.12a3.48,3.48,0,0,1,0,7Zm52.25-29.38a4.07,4.07,0,1,1,4.07-4.07A4.07,4.07,0,0,1,136.37,80.48Z"/><path class="cls-1" d="M86.51,10.75h0a2.77,2.77,0,0,0,1.27.31,2.88,2.88,0,1,0-1.29-.31Z"/></g></g></svg>